<?xml version="1.0" standalone="no"?>
<!DOCTYPE svg PUBLIC "-//W3C//DTD SVG 20010904//EN"
 "http://www.w3.org/TR/2001/REC-SVG-20010904/DTD/svg10.dtd">
<svg version="1.0" xmlns="http://www.w3.org/2000/svg"
 width="1280.000000pt" height="972.000000pt" viewBox="0 0 1280.000000 972.000000"
 preserveAspectRatio="xMidYMid meet">
<metadata>
Created by potrace 1.15, written by Peter Selinger 2001-2017
</metadata>
<g transform="translate(0.000000,972.000000) scale(0.100000,-0.100000)"
fill="#000000" stroke="none">
<path d="M7834 9710 c-170 -18 -314 -61 -398 -120 -217 -151 -329 -504 -340
-1075 -6 -258 -31 -405 -110 -634 -43 -123 -41 -119 -157 -361 -54 -113 -99
-214 -101 -225 -2 -12 4 -21 16 -23 38 -8 125 105 280 364 182 303 246 398
334 496 37 42 93 105 125 142 70 79 191 182 305 260 100 68 313 173 437 216
49 17 113 44 141 61 140 80 385 118 752 119 67 0 122 4 122 8 0 5 -24 14 -52
20 -217 48 -452 41 -768 -23 -99 -20 -135 -24 -144 -15 -7 7 -11 48 -10 108 0
77 7 122 34 222 31 114 34 137 35 270 0 80 -3 157 -8 173 l-7 27 -208 -1
c-114 -1 -239 -5 -278 -9z"/>
<path d="M10690 9018 c-36 -5 -157 -27 -270 -49 -113 -22 -238 -42 -277 -46
-40 -3 -73 -9 -73 -13 0 -4 8 -18 19 -31 76 -98 87 -197 45 -381 -28 -118 -29
-133 -28 -358 l0 -235 33 -95 c60 -176 132 -293 370 -595 150 -191 210 -255
239 -255 33 0 37 37 24 205 -12 150 -7 210 18 240 32 39 112 0 217 -105 80
-80 114 -97 127 -64 4 9 13 62 21 118 21 137 24 145 136 356 165 312 217 460
226 645 9 182 -27 279 -167 450 -113 139 -162 174 -289 206 -81 21 -251 24
-371 7z"/>
<path d="M7725 6846 c-150 -48 -290 -170 -359 -316 -27 -57 -31 -75 -30 -150
0 -94 19 -306 29 -332 8 -20 75 -48 116 -48 45 0 145 37 208 77 118 76 247
230 303 364 79 188 54 341 -65 398 -50 24 -138 27 -202 7z m-59 -401 c34 -34
64 -102 64 -147 l0 -38 -70 0 c-57 0 -74 4 -90 20 -11 11 -20 23 -20 28 -1 4
-5 27 -9 51 -10 51 1 84 33 99 35 18 66 13 92 -13z"/>
<path d="M10913 6765 c-38 -27 -43 -69 -46 -371 l-2 -289 -93 -210 c-52 -115
-115 -245 -140 -289 -83 -139 -186 -214 -320 -232 l-49 -6 -6 -64 c-11 -112
-49 -152 -120 -123 -42 17 -129 99 -183 172 l-43 58 21 47 c11 26 23 78 25
117 5 66 3 73 -27 117 -21 32 -56 63 -105 94 -70 44 -75 50 -135 158 -240 429
-268 474 -356 563 -98 100 -187 126 -282 83 -55 -25 -143 -114 -172 -175 -21
-43 -22 -56 -17 -144 8 -117 31 -215 102 -431 29 -91 63 -202 74 -247 58 -227
38 -454 -47 -554 -41 -47 -73 -65 -144 -80 -29 -6 -93 -23 -143 -39 -168 -52
-225 -50 -225 11 0 16 16 71 35 120 46 120 46 143 -2 167 -146 73 -476 162
-605 162 -67 0 -135 -20 -163 -48 -24 -24 -27 -33 -23 -84 3 -38 15 -77 36
-118 31 -61 31 -61 9 -69 -68 -25 -127 57 -244 344 -107 260 -172 350 -297
409 -95 46 -152 55 -401 66 -221 10 -285 21 -361 65 -61 36 -66 45 -55 101 36
175 14 157 -149 -126 -136 -236 -135 -234 -232 -337 -202 -215 -317 -473 -388
-867 -24 -134 -62 -427 -56 -433 2 -2 114 63 247 145 579 353 979 582 1019
582 20 0 9 -27 -22 -57 -75 -70 -371 -268 -795 -532 -248 -155 -455 -281 -459
-281 -4 0 -4 29 -1 65 4 36 5 65 3 65 -8 0 -768 -480 -785 -496 -11 -10 -7
-11 25 -4 51 11 206 31 211 26 2 -1 -35 -15 -82 -31 -111 -36 -277 -118 -385
-190 -47 -32 -89 -62 -95 -67 -5 -6 91 40 215 102 124 62 223 110 220 106 -4
-3 -150 -95 -326 -204 -176 -110 -334 -208 -350 -218 -28 -18 -29 -18 -14 0 8
11 56 53 105 94 50 41 95 79 100 84 6 6 -54 -22 -132 -61 -79 -39 -143 -69
-143 -66 0 3 111 79 248 168 375 246 378 249 357 243 -291 -80 -498 -179 -713
-340 -94 -71 -101 -74 -177 -86 -204 -29 -425 -105 -680 -233 -121 -60 -374
-200 -443 -245 -12 -8 -22 -12 -22 -9 0 2 99 78 220 167 122 89 219 164 217
167 -17 17 -215 44 -357 50 -293 10 -536 -33 -800 -144 -98 -41 -274 -137
-261 -141 8 -3 849 136 1236 204 77 13 144 24 150 24 5 0 -30 -14 -80 -31
-215 -73 -453 -219 -670 -413 l-40 -35 110 38 c61 22 123 44 138 50 16 6 33 9
38 5 5 -3 21 4 35 15 15 12 31 21 36 21 5 0 109 36 230 80 122 44 222 79 224
77 2 -2 -20 -21 -48 -43 -28 -21 -62 -47 -74 -57 -13 -10 -73 -31 -132 -47
-111 -29 -257 -82 -330 -119 -63 -32 -63 -25 1 20 31 22 57 43 57 46 0 3 -26
-10 -58 -28 -96 -54 -296 -161 -319 -170 -37 -14 -26 5 28 51 27 23 48 44 45
47 -2 3 -30 -4 -60 -16 -31 -11 -56 -18 -56 -15 0 3 11 20 25 36 14 17 24 33
21 35 -6 6 -176 -15 -266 -33 -257 -53 -547 -189 -775 -363 -67 -51 -277 -252
-271 -258 2 -3 204 96 448 219 428 215 446 223 525 233 46 6 83 11 83 10 0 0
-31 -32 -69 -72 -64 -68 -73 -74 -152 -99 -195 -61 -395 -155 -695 -325 -118
-67 -213 -123 -212 -125 2 -1 107 35 233 81 126 46 231 83 232 81 2 -1 -32
-30 -75 -64 -83 -66 -253 -232 -237 -232 6 0 25 9 44 21 49 30 48 17 -1 -16
-105 -69 -282 -233 -392 -365 -82 -97 -181 -245 -236 -351 -41 -81 -42 -83
-14 -58 16 15 187 174 379 354 193 180 363 332 379 338 46 16 246 116 278 138
15 11 28 17 28 13 0 -6 -53 -106 -187 -351 -19 -35 -31 -63 -27 -63 4 0 -1 -7
-12 -15 -39 -29 4 -14 131 48 188 92 223 118 395 293 85 87 145 151 133 143
-22 -14 -223 -163 -497 -367 -76 -57 -140 -102 -142 -100 -1 2 126 172 284
377 l287 373 233 120 c128 66 236 118 238 115 3 -2 -13 -25 -35 -51 -53 -61
-119 -156 -165 -236 -21 -36 -65 -93 -99 -127 -34 -35 -56 -63 -50 -63 6 0 16
7 23 16 8 8 22 20 32 25 16 9 15 3 -8 -48 -45 -101 -85 -205 -115 -298 -26
-80 -43 -139 -96 -331 l-14 -51 -86 -17 c-47 -9 -88 -15 -90 -12 -2 2 32 64
77 137 45 74 85 138 87 143 29 46 -154 -118 -275 -249 -91 -97 -96 -101 -195
-143 -87 -36 -239 -119 -327 -179 l-25 -17 26 30 c34 38 249 410 249 430 0 4
-61 -74 -136 -172 -75 -99 -187 -244 -248 -324 l-110 -145 69 60 c114 96 118
96 16 -2 -52 -51 -100 -93 -106 -93 -6 0 -33 -23 -60 -51 l-50 -51 324 162
c177 88 321 157 319 153 -2 -4 -32 -66 -68 -138 -36 -71 -87 -193 -113 -270
l-48 -140 -67 -48 c-37 -26 -78 -56 -92 -67 l-25 -20 27 9 c15 6 44 19 65 29
21 11 48 22 60 26 21 7 21 6 8 -44 -17 -63 -7 -57 41 25 33 56 48 71 118 114
58 35 122 91 226 195 79 80 142 147 140 149 -3 2 -85 -56 -182 -129 -98 -74
-178 -131 -178 -127 0 3 77 132 170 287 l170 281 135 68 c74 37 135 64 135 59
0 -4 -12 -58 -26 -121 l-27 -114 -81 -86 c-93 -97 -94 -98 169 98 88 66 161
118 163 116 2 -1 -22 -38 -53 -80 -31 -43 -72 -108 -92 -144 -20 -36 -47 -86
-61 -111 l-26 -45 40 34 c92 81 1064 995 1060 998 -1 2 -49 -13 -106 -32 -278
-97 -519 -261 -839 -570 l-142 -138 22 54 c11 30 33 84 47 121 23 59 31 69 67
85 l40 18 -31 5 -31 5 172 423 c95 233 181 432 191 442 11 9 245 184 522 389
439 324 520 380 632 436 72 36 132 65 135 65 4 0 -29 -28 -72 -62 -92 -75
-356 -331 -486 -471 l-92 -100 200 147 c199 147 248 185 190 150 l-30 -18 25
27 c77 86 820 620 878 632 20 3 22 1 16 -18 -3 -12 -13 -34 -20 -49 -20 -38
-18 -43 12 -23 40 26 37 13 -7 -23 -22 -19 -36 -26 -32 -16 4 12 -4 10 -36
-10 -22 -14 -41 -24 -41 -20 0 8 50 74 84 111 16 18 28 35 25 37 -4 4 -653
-470 -724 -529 -16 -14 111 63 283 170 171 107 312 193 312 191 0 -1 -23 -41
-50 -87 -28 -46 -79 -112 -113 -146 -66 -68 -71 -78 -17 -38 18 14 35 23 37
21 3 -2 -7 -26 -20 -53 -41 -80 -113 -279 -157 -433 -45 -154 -152 -601 -147
-607 2 -2 16 27 30 64 37 98 456 1133 467 1154 5 9 234 182 507 384 274 202
507 378 518 391 18 20 495 324 509 324 3 0 6 -8 6 -17 -1 -11 -29 -35 -72 -62
-126 -79 -288 -212 -458 -378 -185 -180 -365 -373 -310 -332 19 14 186 138
370 274 184 136 361 268 394 292 l59 45 -6 -154 c-6 -168 -11 -198 -91 -533
-67 -281 -77 -346 -77 -495 0 -129 18 -228 58 -325 23 -54 25 -70 20 -155 -5
-113 -31 -188 -88 -260 -56 -72 -111 -109 -304 -206 -205 -104 -289 -158 -349
-225 -38 -42 -46 -58 -46 -89 0 -76 -30 -141 -95 -206 -66 -67 -136 -107 -307
-175 -260 -103 -338 -176 -338 -316 l0 -43 58 0 c36 0 77 9 112 23 72 30 246
148 335 229 405 364 850 625 1205 708 52 12 293 71 535 131 580 143 556 139
753 139 247 0 420 29 631 102 l114 40 18 -23 c15 -20 16 -25 3 -27 -8 -2 -21
-17 -30 -34 -15 -28 -14 -32 8 -64 54 -79 102 -41 64 50 l-14 33 29 -10 c39
-15 97 14 176 87 34 31 63 56 67 56 3 0 6 -14 6 -31 0 -23 -11 -44 -40 -75
-72 -78 -68 -132 13 -170 41 -19 68 -24 132 -24 136 0 164 42 70 105 -30 20
-55 43 -55 51 0 18 34 82 57 109 41 45 110 89 284 180 101 53 201 110 222 126
20 17 37 26 37 22 0 -4 -41 -62 -91 -128 -241 -317 -299 -445 -299 -657 0
-168 -39 -258 -246 -564 -115 -170 -189 -310 -178 -337 10 -26 78 -40 158 -32
129 13 299 52 309 71 20 35 74 87 85 80 6 -3 18 -30 28 -59 35 -108 56 -106
179 18 52 52 102 95 110 95 10 0 27 -25 44 -62 15 -35 35 -69 43 -75 43 -36
457 -52 1433 -54 l860 -2 95 32 c52 18 160 66 240 108 377 199 481 243 570
243 67 0 150 24 280 81 244 108 327 139 398 151 l74 12 -5 931 c-3 565 -10
993 -17 1090 -11 149 -13 163 -40 205 -78 122 -108 230 -155 555 -53 365 -87
463 -215 615 -151 179 -225 241 -545 460 -198 135 -283 201 -364 283 l-53 55
1 133 c3 225 -39 353 -215 660 -58 101 -125 223 -149 270 -36 72 -50 89 -76
98 -18 6 -33 11 -33 11 -1 0 -11 -7 -23 -15z m-1644 -444 c27 -17 9 -132 -27
-164 -23 -20 -125 -49 -159 -45 -57 6 -30 89 58 176 34 34 50 42 78 42 20 0
42 -4 50 -9z m1918 -686 c12 -9 32 -29 43 -46 l22 -30 -26 -34 c-51 -67 -89
-68 -106 -4 -16 59 4 123 40 128 3 1 15 -6 27 -14z m-3871 -461 c24 -34 55
-87 69 -119 26 -58 45 -175 29 -175 -5 1 -64 105 -131 232 l-122 231 55 -54
c31 -30 76 -82 100 -115z m4058 144 c19 -92 15 -163 -7 -155 -14 4 -35 64 -36
99 -1 30 18 78 30 78 5 0 11 -10 13 -22z m-4188 -413 c29 -58 35 -81 32 -121
l-3 -49 -89 160 c-49 88 -100 177 -113 197 -39 64 -25 56 58 -31 53 -57 91
-108 115 -156z m716 -29 c176 -59 410 -116 578 -141 171 -26 180 -35 30 -29
-256 10 -470 57 -673 147 -58 27 -247 134 -247 142 0 2 33 -12 74 -31 41 -18
148 -58 238 -88z m-5755 -2221 c-37 -25 -67 -47 -67 -50 0 -2 19 2 42 11 22 8
43 12 45 10 2 -2 -8 -17 -22 -34 -32 -39 -32 -43 7 -31 18 5 35 9 38 9 2 0
-29 -34 -70 -75 -41 -41 -81 -75 -88 -75 -16 0 -17 -1 47 86 27 37 30 45 15
41 -10 -3 -37 -8 -59 -11 l-40 -7 33 31 c18 16 29 30 25 30 -5 0 -44 -14 -88
-30 -44 -16 -84 -30 -90 -29 -12 0 315 168 330 168 5 1 -21 -19 -58 -44z m418
-118 c-36 -29 -108 -92 -251 -221 l-55 -48 20 48 c49 124 38 112 182 185 74
38 136 68 139 68 3 0 -13 -14 -35 -32z m-908 -524 c-86 -86 -160 -153 -163
-150 -4 3 10 32 29 64 20 32 34 59 32 61 -1 2 -47 -30 -101 -70 -283 -211
-284 -212 -284 -206 0 2 70 69 155 148 99 91 178 156 217 177 34 18 63 31 65
29 2 -1 -6 -15 -18 -29 -11 -15 -18 -27 -15 -27 3 0 54 36 113 80 60 44 113
80 118 80 6 0 -61 -71 -148 -157z"/>
<path d="M6473 6568 c-8 -57 -7 -67 9 -107 l11 -26 7 25 c9 32 0 160 -11 160
-4 0 -12 -24 -16 -52z"/>
<path d="M4313 3032 c-182 -136 -335 -251 -339 -255 -13 -13 24 2 131 54 146
70 204 108 305 200 74 68 250 251 238 248 -2 0 -152 -112 -335 -247z"/>
<path d="M3393 2568 c-188 -139 -340 -254 -338 -256 6 -6 213 95 294 143 59
36 118 87 237 206 87 88 157 159 154 159 -3 0 -159 -114 -347 -252z"/>
<path d="M3555 2406 c-355 -253 -537 -488 -889 -1148 -32 -60 -56 -108 -53
-108 2 0 73 90 157 200 84 110 154 200 156 200 2 0 -5 -19 -15 -42 -34 -80
-111 -352 -111 -392 0 -4 76 117 168 270 93 154 271 449 396 657 126 208 227
379 225 381 -2 2 -17 -6 -34 -18z"/>
<path d="M2485 2114 c-181 -135 -334 -250 -340 -255 -23 -23 237 103 309 149
59 38 204 172 292 269 42 45 74 83 72 83 -1 -1 -151 -111 -333 -246z"/>
<path d="M715 1853 c-38 -14 -212 -77 -385 -140 -302 -109 -312 -114 -244
-108 146 12 303 51 399 99 112 56 323 176 310 175 -5 0 -41 -12 -80 -26z"/>
<path d="M7700 1819 c-266 -17 -470 -88 -470 -162 0 -43 113 -127 172 -127
128 0 508 119 609 190 61 44 21 84 -98 95 -32 4 -67 7 -78 9 -11 1 -72 -1
-135 -5z"/>
<path d="M3338 1337 c-92 -227 -158 -401 -147 -388 33 40 125 193 169 280 30
61 55 137 95 299 30 119 53 217 52 219 -2 1 -78 -183 -169 -410z"/>
<path d="M7787 1500 c-35 -30 -75 -105 -63 -117 4 -4 37 -9 74 -11 57 -3 71
-1 95 18 36 29 37 81 2 115 -32 33 -67 31 -108 -5z"/>
<path d="M2311 750 c-143 -187 -256 -340 -251 -340 5 0 73 63 152 139 141 138
144 141 232 298 49 87 100 177 113 201 13 23 22 42 19 42 -3 0 -122 -153 -265
-340z"/>
<path d="M1527 457 c-80 -199 -153 -380 -162 -402 -24 -58 -3 -32 70 85 114
184 140 247 196 468 28 112 49 206 47 208 -3 2 -70 -159 -151 -359z"/>
</g>
</svg>
