<?xml version="1.0" standalone="no"?>
<!DOCTYPE svg PUBLIC "-//W3C//DTD SVG 20010904//EN"
 "http://www.w3.org/TR/2001/REC-SVG-20010904/DTD/svg10.dtd">
<svg version="1.0" xmlns="http://www.w3.org/2000/svg"
 width="1280.000000pt" height="960.000000pt" viewBox="0 0 1280.000000 960.000000"
 preserveAspectRatio="xMidYMid meet">
<metadata>
Created by potrace 1.15, written by Peter Selinger 2001-2017
</metadata>
<g transform="translate(0.000000,960.000000) scale(0.100000,-0.100000)"
fill="#000000" stroke="none">
<path d="M5205 9000 c2 -13 14 -33 25 -45 19 -20 19 -23 5 -29 -9 -3 -14 -2
-11 3 3 5 -2 15 -12 22 -15 12 -16 12 -5 -2 10 -12 10 -19 -1 -35 -11 -15 -12
-22 -3 -33 10 -12 9 -13 -7 -8 -14 6 -17 4 -12 -10 6 -17 5 -17 -8 0 -8 10
-18 18 -23 18 -8 -1 -9 3 -12 34 -1 9 -7 12 -18 8 -10 -4 -14 -2 -10 5 4 6 -7
20 -25 32 -25 17 -28 17 -13 3 23 -21 48 -63 43 -69 -7 -7 -48 27 -48 40 0 6
-17 28 -37 47 -23 21 -30 24 -18 9 11 -14 23 -27 26 -30 13 -12 17 -39 6 -43
-7 -2 0 -10 16 -17 15 -7 26 -18 25 -24 -1 -6 5 -22 14 -36 9 -14 16 -37 14
-52 -2 -15 1 -25 5 -22 5 3 9 0 9 -5 0 -21 -19 -10 -34 19 -8 17 -10 30 -5 30
5 0 9 5 9 11 0 5 -4 8 -9 4 -5 -3 -17 2 -25 11 -15 14 -16 14 -16 -3 0 -15 -2
-15 -9 -4 -5 8 -17 16 -26 17 -12 2 -7 -8 16 -33 32 -33 33 -35 9 -28 -14 5
-31 8 -37 8 -7 0 -15 9 -19 19 -3 10 -9 16 -14 13 -5 -3 -11 -1 -15 5 -3 5
-16 15 -28 21 -15 7 -12 3 8 -15 17 -14 33 -25 38 -26 12 0 8 -30 -5 -30 -6 0
4 -13 22 -30 18 -16 30 -30 25 -30 -5 0 -4 -5 3 -12 22 -22 13 -29 -10 -8 -12
11 -26 20 -30 20 -5 0 -20 12 -34 27 -14 15 -22 19 -18 10 7 -18 -11 -24 -21
-7 -4 6 -16 8 -28 5 -13 -4 -17 -3 -10 2 8 6 2 14 -19 26 -26 15 -29 15 -18 2
12 -14 10 -16 -16 -10 l-29 6 30 -15 30 -15 -29 6 c-18 4 -27 2 -23 -4 3 -5
-7 -8 -26 -6 l-32 3 33 -10 c36 -12 39 -15 16 -24 -8 -3 -13 -2 -10 3 3 4 -11
8 -32 9 -24 1 -32 -2 -23 -7 11 -7 11 -9 0 -14 -8 -3 3 -6 23 -6 20 -1 40 -6
44 -12 5 -8 -1 -10 -18 -7 -14 3 -36 -1 -48 -7 -23 -12 -23 -12 6 -20 26 -7
27 -8 9 -15 l-20 -9 20 -1 c11 -2 23 -2 28 -1 4 0 7 -5 7 -13 0 -11 -7 -12
-32 -5 -18 4 -56 10 -84 12 -28 2 -57 8 -64 12 -8 5 -11 4 -7 -2 4 -6 -21 -9
-71 -7 -65 2 -70 2 -32 -6 61 -11 111 -28 86 -29 -29 -1 -12 -13 25 -17 35 -4
53 -14 26 -14 -10 0 -17 -5 -17 -11 0 -7 10 -9 24 -5 15 4 30 1 38 -7 7 -8 31
-19 53 -25 l40 -11 -40 5 c-22 2 -66 8 -97 12 l-57 8 31 -28 c34 -31 33 -33
-8 -18 -16 7 -31 7 -38 1 -6 -5 -22 -11 -36 -14 -25 -4 -25 -4 3 -6 24 -1 41
-21 17 -21 -5 0 -7 -6 -4 -14 4 -10 -3 -16 -23 -19 -19 -3 -13 -5 17 -5 65 -2
89 -5 84 -13 -2 -4 2 -10 8 -12 7 -3 -3 -6 -22 -8 l-35 -2 35 -7 c30 -6 25 -8
-29 -9 -90 -2 -72 -9 27 -12 46 -2 85 -6 87 -10 8 -13 -29 -16 -105 -8 -41 4
-76 6 -78 4 -1 -1 19 -9 45 -18 47 -16 47 -16 14 -16 -39 -1 -38 -10 2 -13 15
-1 27 -7 27 -13 0 -6 3 -6 8 1 4 6 18 8 32 4 23 -6 22 -7 -13 -14 -20 -4 -42
-4 -49 0 -7 4 -8 3 -4 -4 4 -7 17 -12 29 -13 12 0 31 -4 42 -8 12 -5 -15 -7
-65 -5 -46 1 -89 0 -94 -4 -12 -7 -37 -11 -83 -15 -38 -2 -34 -13 6 -19 18 -3
28 0 24 5 -4 7 6 7 28 2 19 -4 43 -7 54 -7 19 1 19 0 2 -10 -10 -5 -27 -8 -38
-5 -10 3 -19 1 -19 -4 0 -5 -13 -9 -29 -9 -17 0 -32 -4 -35 -8 -3 -4 10 -6 27
-4 18 2 41 3 52 2 11 0 35 -1 53 -1 57 -1 30 -24 -34 -29 -45 -4 -54 -7 -37
-13 13 -5 26 -6 31 -3 4 2 32 -4 62 -14 30 -11 70 -19 87 -20 21 0 32 -5 30
-12 -1 -8 7 -13 20 -12 12 0 20 -3 17 -8 -3 -4 -12 -8 -20 -8 -8 0 -12 -4 -9
-10 3 -6 -1 -7 -10 -3 -12 4 -13 8 -5 13 9 5 9 9 1 14 -6 4 -16 4 -23 0 -6 -4
-8 -3 -5 3 5 7 -12 10 -48 9 -67 -2 -79 -11 -26 -20 22 -3 43 -11 46 -16 4 -7
-2 -7 -19 0 -14 5 -27 6 -30 2 -4 -7 13 -12 56 -15 9 -1 15 -3 13 -5 -2 -3 6
-13 18 -23 21 -17 13 -28 -9 -11 -5 4 1 -3 14 -16 l23 -22 -50 2 c-28 1 -47 6
-44 12 4 5 1 6 -6 1 -16 -9 -62 15 -54 28 3 6 1 7 -6 3 -9 -6 -9 -11 -1 -21
14 -17 100 -51 119 -47 7 2 22 -6 33 -17 15 -17 16 -21 3 -21 -8 0 -15 5 -15
10 0 6 -5 10 -11 10 -6 0 -9 -7 -5 -15 3 -8 1 -15 -3 -15 -5 0 -11 5 -13 11
-2 6 -23 12 -46 14 -23 1 -46 6 -50 10 -4 4 4 4 18 1 24 -7 24 -6 6 8 -11 9
-22 12 -25 8 -11 -15 -54 -11 -93 9 -22 11 -44 19 -50 17 -7 -3 4 -10 23 -18
19 -8 42 -25 52 -37 10 -13 23 -21 28 -18 5 4 9 -1 9 -9 0 -9 6 -16 14 -16 8
0 17 -7 20 -16 9 -24 7 -28 -9 -14 -8 6 -20 8 -27 4 -7 -4 -10 -4 -6 1 11 11
-11 35 -32 35 -10 0 -25 10 -34 23 -9 12 -13 15 -10 5 3 -10 -1 -18 -13 -21
-11 -4 -9 -5 7 -4 15 1 24 -3 23 -10 -2 -7 3 -13 11 -13 17 0 87 -81 80 -92
-3 -5 -16 -5 -30 -2 -14 4 -24 2 -24 -5 0 -6 7 -11 15 -11 8 0 15 -7 15 -16 0
-9 5 -12 12 -8 7 5 8 3 4 -5 -5 -7 -15 -10 -25 -7 -9 4 -5 -2 8 -13 14 -10 30
-17 36 -14 15 5 170 -89 212 -129 22 -21 38 -29 52 -25 12 3 24 1 27 -4 3 -5
-3 -9 -12 -9 -16 0 -16 -1 1 -20 10 -11 15 -20 10 -20 -4 0 -1 -7 6 -17 12
-14 12 -16 -1 -11 -8 3 -14 12 -14 21 1 10 -6 15 -18 14 -16 -1 -11 -10 27
-44 25 -24 40 -43 33 -43 -6 0 -3 -7 8 -15 12 -9 15 -18 9 -22 -14 -11 -17
-33 -4 -33 5 0 27 -11 47 -25 28 -19 32 -25 17 -25 -19 -1 -18 -2 4 -21 13
-11 31 -24 39 -28 8 -5 16 -19 17 -32 1 -18 9 -25 30 -29 16 -3 30 -11 33 -19
3 -10 -4 -12 -32 -9 -20 2 -36 3 -36 1 0 -7 58 -31 64 -26 3 4 6 -3 6 -15 0
-15 6 -22 19 -22 11 0 23 -4 26 -10 3 -6 -4 -10 -17 -10 l-23 -1 24 -13 c14
-8 32 -12 40 -9 11 3 10 1 -2 -7 -10 -6 -25 -9 -33 -6 -9 3 -12 1 -9 -4 3 -6
1 -10 -5 -10 -6 0 -8 -4 -5 -10 4 -6 -7 -8 -27 -5 l-33 5 30 -11 c17 -6 37
-10 45 -10 48 3 206 -1 210 -5 2 -3 -2 -9 -10 -14 -26 -16 8 -12 41 6 l30 15
-15 -29 c-10 -20 -12 -32 -5 -39 7 -7 0 -19 -21 -37 -17 -14 -35 -26 -40 -26
-5 0 -18 -21 -30 -46 -24 -54 -24 -58 -7 -48 6 4 4 -1 -5 -12 -12 -14 -14 -24
-7 -36 7 -13 5 -22 -11 -35 -27 -22 -49 -60 -28 -47 11 6 11 5 -1 -9 -10 -13
-11 -17 -1 -17 9 0 7 -7 -5 -20 -18 -20 -18 -21 1 -14 17 7 17 5 -3 -18 -27
-29 -29 -40 -6 -31 13 5 15 2 10 -11 -4 -10 -3 -15 3 -11 16 10 12 -7 -7 -27
-9 -10 -11 -18 -6 -18 7 0 9 -23 7 -60 -2 -42 0 -58 8 -54 7 4 8 2 4 -4 -4 -7
-19 -13 -34 -13 -18 -1 -21 -3 -9 -6 14 -4 16 -8 6 -19 -6 -8 -17 -14 -25 -14
-7 0 -16 -5 -20 -12 -5 -8 0 -9 16 -5 13 3 19 2 14 -3 -5 -4 -20 -10 -34 -12
l-25 -5 25 -11 25 -12 -27 5 c-21 4 -26 2 -22 -9 4 -11 0 -13 -17 -9 -15 4
-20 3 -15 -5 4 -7 1 -12 -8 -12 -9 0 -16 -4 -16 -9 0 -12 -60 -32 -73 -24 -6
3 -7 1 -3 -5 5 -8 -1 -12 -18 -12 -27 0 -44 -16 -24 -22 23 -8 -16 -35 -46
-32 -24 2 -26 1 -14 -13 12 -14 11 -15 -8 -5 -30 16 -38 3 -11 -21 l22 -20
-45 7 c-25 3 -52 2 -60 -4 -12 -8 -11 -10 7 -10 12 0 25 -4 28 -10 4 -6 -5
-10 -19 -10 -14 0 -26 -4 -26 -8 0 -8 -71 -43 -110 -55 -9 -3 -1 -8 18 -12 18
-4 35 -12 39 -18 4 -6 1 -7 -6 -3 -7 5 -21 0 -31 -9 -18 -17 -27 -17 -75 -1
-11 4 -5 -1 13 -12 31 -17 32 -19 16 -33 -10 -8 -15 -9 -11 -3 4 8 -8 11 -41
11 -26 0 -38 -2 -27 -4 48 -10 48 -16 1 -32 -35 -11 -50 -22 -52 -36 -2 -17
-1 -18 9 -4 7 8 20 18 30 22 15 6 14 2 -4 -22 -12 -17 -28 -27 -35 -24 -8 3
-14 0 -14 -6 0 -6 -6 -11 -14 -11 -7 0 -19 -7 -26 -15 -9 -10 -9 -15 -1 -15 6
0 11 -3 11 -7 0 -9 -48 -33 -66 -33 -6 0 -14 -7 -17 -15 -4 -8 -21 -18 -39
-24 -30 -8 -30 -9 -7 -10 14 -1 30 4 37 11 8 8 12 8 12 1 0 -15 -21 -30 -53
-38 -15 -4 -33 -17 -39 -29 -6 -11 -16 -25 -22 -29 -6 -5 -1 -5 12 -2 12 3 22
4 22 2 0 -8 -104 -70 -117 -70 -11 0 -11 -8 -4 -46 1 -2 9 3 18 10 14 12 16
12 8 0 -6 -11 -2 -13 18 -9 15 3 24 1 21 -3 -3 -5 -12 -9 -20 -9 -15 0 -78
-56 -80 -72 -1 -4 -2 -12 -3 -18 0 -5 -20 -24 -43 -41 -37 -26 -39 -30 -15
-24 18 5 27 3 27 -5 0 -6 -4 -9 -10 -5 -11 7 -93 -72 -86 -84 3 -4 -1 -25 -8
-46 -9 -26 -24 -44 -47 -56 -36 -19 -33 -26 4 -8 16 7 14 3 -8 -18 -17 -15
-25 -24 -18 -19 8 5 13 4 13 -2 0 -6 -5 -14 -10 -17 -6 -4 -8 -10 -5 -15 3 -4
-24 -42 -60 -84 -73 -86 -89 -112 -79 -127 3 -6 -9 -32 -27 -57 -18 -26 -25
-41 -16 -33 9 7 17 10 17 6 0 -5 10 0 22 11 12 10 19 15 17 9 -24 -50 -34 -64
-51 -68 -16 -5 -18 -9 -8 -26 6 -12 7 -20 1 -19 -5 2 -10 -1 -11 -7 -1 -5 -9
-19 -18 -29 -16 -18 -16 -19 3 -12 16 6 18 5 8 -5 -7 -7 -13 -20 -12 -29 0
-10 2 -11 6 -2 2 7 14 17 26 24 20 10 21 10 8 -5 -7 -10 -10 -17 -7 -17 4 0 2
-9 -4 -20 -12 -22 -1 -27 17 -9 7 7 4 -5 -5 -25 -9 -20 -20 -36 -25 -36 -4 0
-5 5 -1 12 4 7 3 8 -5 4 -6 -4 -9 -12 -5 -17 3 -6 -5 -22 -17 -37 -23 -26 -23
-26 -1 -8 28 24 29 10 0 -21 -22 -23 -12 -33 10 -11 7 7 12 8 12 2 0 -6 -12
-21 -26 -35 -23 -22 -51 -72 -68 -124 -5 -17 -4 -18 6 -4 7 8 22 19 33 23 13
4 8 -4 -14 -24 -26 -24 -36 -28 -42 -18 -6 9 -8 6 -6 -9 1 -18 4 -20 20 -11
16 8 17 7 7 -11 -6 -12 -8 -21 -4 -21 3 0 -1 -11 -10 -25 -18 -28 -21 -39 -6
-30 14 9 13 -8 -2 -23 -9 -9 -9 -12 0 -12 7 0 15 7 18 15 4 8 11 15 18 15 6 0
-4 -14 -22 -30 -30 -28 -32 -35 -7 -30 6 1 -1 -11 -15 -27 -17 -19 -18 -22 -4
-10 32 27 36 20 8 -20 -16 -23 -21 -39 -14 -43 7 -4 -2 -26 -25 -60 -20 -29
-29 -47 -20 -40 18 15 20 0 3 -20 -7 -8 -1 -4 15 9 32 29 33 33 10 24 -16 -6
-16 -5 -4 11 12 15 16 15 23 3 8 -15 -14 -71 -33 -82 -5 -4 -9 -11 -9 -17 0
-6 10 -2 23 10 33 31 42 27 17 -8 -12 -16 -17 -30 -11 -30 6 0 15 9 21 20 6
11 15 20 21 20 5 0 3 -10 -5 -23 -8 -12 -16 -26 -18 -32 -2 -5 -7 -9 -11 -7
-5 1 -6 -2 -3 -7 4 -5 2 -12 -4 -16 -5 -3 -15 -16 -21 -28 l-12 -22 23 20 23
20 -11 -21 c-7 -12 -27 -43 -47 -68 -41 -54 -38 -59 8 -13 17 17 29 28 25 22
-12 -14 -9 -27 4 -19 7 4 8 3 4 -5 -4 -6 -12 -9 -17 -6 -5 4 -9 -3 -9 -14 0
-12 -4 -21 -8 -21 -5 0 -14 -12 -21 -27 -11 -23 -10 -25 3 -13 13 10 16 10 16
-3 0 -8 6 -17 12 -19 9 -3 4 -13 -12 -29 -15 -13 -18 -18 -8 -10 15 12 18 12
18 1 0 -9 5 -7 16 6 8 10 12 12 8 4 -4 -8 -16 -26 -28 -39 -22 -25 -6 -21 28
8 19 16 19 15 3 -9 -19 -28 -21 -40 -8 -40 5 0 12 8 14 17 4 15 5 15 6 -2 0
-11 -8 -33 -18 -49 -15 -22 -17 -34 -10 -48 8 -14 5 -26 -12 -51 l-23 -32 29
25 c26 23 27 24 16 3 -14 -28 -14 -36 1 -27 7 4 8 3 4 -5 -4 -6 -10 -10 -14
-7 -4 2 -14 -12 -24 -31 -16 -34 -16 -34 3 -17 21 19 26 6 7 -16 -7 -8 -3 -6
10 4 29 25 38 16 11 -12 -11 -12 -17 -27 -14 -32 3 -6 1 -10 -5 -10 -11 0 -32
-43 -35 -73 -2 -10 -7 -23 -14 -30 -6 -6 -11 -19 -11 -28 0 -9 -7 -22 -15 -29
-8 -7 -13 -22 -11 -34 3 -11 5 -25 5 -29 1 -5 5 -5 11 -2 15 9 12 -11 -4 -24
-7 -6 -13 -23 -13 -38 0 -15 -6 -29 -12 -31 -6 -2 -11 -10 -11 -18 0 -9 5 -12
11 -8 8 5 8 1 0 -14 -15 -28 -14 -35 5 -28 8 3 12 2 9 -4 -3 -6 -13 -10 -21
-10 -8 0 -12 -5 -9 -10 4 -6 10 -8 15 -5 9 6 -3 -45 -16 -67 -6 -10 -3 -9 9 1
24 19 21 -2 -3 -24 -17 -16 -18 -20 -6 -27 15 -9 11 -40 -13 -89 l-12 -24 22
25 c22 24 22 25 16 3 -3 -13 -1 -23 4 -23 4 0 5 -8 2 -17 -6 -16 -5 -16 10 -4
15 12 15 8 -3 -35 -11 -27 -14 -41 -6 -32 11 16 13 11 9 -37 -2 -33 0 -55 7
-55 10 0 7 -51 -6 -84 -5 -13 -4 -17 3 -13 8 5 11 -8 11 -40 0 -33 5 -49 17
-56 12 -6 16 -20 14 -53 -2 -24 0 -46 4 -50 4 -4 7 0 7 9 0 9 4 17 9 17 10 0
8 -67 -2 -115 -4 -16 -4 -24 -1 -17 8 17 24 15 24 -4 0 -8 4 -13 8 -10 4 2 7
-12 5 -32 -2 -33 -1 -34 7 -12 7 20 9 15 9 -30 -1 -72 1 -79 11 -55 8 19 9 19
9 -2 1 -13 5 -23 10 -23 14 0 42 -61 34 -74 -4 -6 0 -6 9 2 13 11 15 9 10 -15
-4 -27 -4 -27 12 -8 14 18 15 19 16 2 0 -10 5 -15 10 -12 6 3 10 -1 10 -10 0
-9 7 -23 15 -31 8 -9 13 -25 11 -37 -1 -12 -1 -16 1 -9 7 21 21 3 15 -20 -3
-14 -2 -19 6 -14 7 4 12 14 12 22 0 14 2 14 16 0 8 -9 13 -19 11 -23 -3 -5 -1
-17 4 -28 7 -18 8 -18 9 5 1 24 1 24 15 6 8 -10 19 -15 26 -10 7 4 10 3 6 -2
-3 -6 -2 -16 4 -24 7 -12 9 -12 9 -1 0 23 30 -8 30 -33 0 -16 2 -18 9 -7 5 8
7 21 4 30 -4 14 -3 14 6 1 6 -8 11 -28 12 -45 0 -23 2 -26 8 -12 6 16 9 16 30
-7 13 -14 27 -23 31 -21 4 3 7 -3 6 -12 0 -10 6 -18 14 -18 17 -1 90 -34 76
-35 -5 0 1 -8 12 -19 12 -10 23 -30 24 -45 2 -17 7 -25 15 -22 7 3 13 2 14 -2
0 -4 1 -25 2 -47 2 -22 6 -46 10 -52 5 -8 3 -13 -3 -13 -6 0 -8 -5 -5 -10 3
-6 -1 -13 -11 -17 -15 -6 -15 -7 5 -15 18 -6 20 -11 11 -27 -5 -11 -10 -28
-10 -39 0 -11 -7 -23 -16 -26 -10 -4 -13 -13 -9 -25 3 -10 -1 -23 -10 -31 -8
-7 -12 -16 -9 -21 3 -5 -1 -9 -9 -9 -20 0 -105 -87 -99 -102 1 -5 -5 -8 -14
-8 -8 0 -12 -5 -9 -10 4 -6 -2 -25 -13 -43 -30 -49 -47 -110 -33 -115 6 -2 8
-9 4 -15 -9 -14 -4 -88 6 -102 5 -5 16 -31 26 -57 10 -26 25 -53 33 -60 14
-12 15 -7 9 41 -6 49 -5 53 13 48 11 -3 20 0 20 6 0 8 4 7 12 -1 18 -18 28
-15 28 9 0 18 3 19 14 9 8 -6 12 -19 9 -27 -5 -12 -3 -14 7 -8 10 6 12 4 7 -8
-3 -9 -2 -17 3 -19 5 -2 14 -25 19 -53 13 -68 29 -107 41 -100 5 3 10 19 10
34 0 35 29 107 30 76 l1 -20 9 20 c5 11 9 14 9 6 1 -8 8 -4 21 10 11 14 19 18
20 11 0 -10 3 -10 15 2 8 8 15 19 15 25 0 6 7 11 15 11 8 0 15 5 15 11 0 14
26 39 40 39 7 0 8 -5 2 -17 -7 -11 -6 -21 3 -29 7 -7 20 -55 30 -106 10 -51
20 -97 23 -102 10 -18 22 21 22 74 0 53 19 100 40 100 4 0 8 -36 8 -81 0 -45
4 -85 10 -91 8 -8 13 -7 16 3 2 8 10 31 16 51 14 47 46 88 69 88 19 0 61 35
61 50 0 6 6 10 14 10 8 0 13 6 13 13 -1 19 45 117 55 117 6 0 8 7 5 14 -4 10
-1 13 9 9 9 -3 27 7 44 26 30 31 60 33 60 4 0 -13 3 -13 15 -3 13 11 14 10 9
-5 -6 -14 -3 -16 17 -11 20 6 21 5 7 -4 -10 -6 -18 -15 -18 -21 0 -5 12 -2 26
8 26 17 27 17 19 -7 -6 -19 -4 -22 10 -16 14 5 16 2 12 -13 -3 -14 -1 -18 10
-14 7 3 13 2 12 -3 -5 -29 2 -37 16 -18 14 19 14 19 15 -3 0 -30 76 -54 93
-29 5 8 10 6 17 -4 8 -13 10 -12 10 3 0 10 5 15 10 12 6 -3 10 -1 10 5 0 6 5
8 10 5 6 -3 10 -1 10 5 0 6 5 8 11 4 8 -4 9 1 4 16 -5 17 -4 21 6 15 9 -6 11
-3 5 10 -5 15 -4 16 8 6 12 -10 14 -9 12 4 -1 9 -9 21 -17 27 -11 7 -9 9 9 5
30 -7 28 0 -10 24 l-33 21 28 -5 c26 -4 27 -3 11 14 -16 17 -16 19 0 25 12 4
14 10 6 19 -5 6 -7 14 -4 18 3 3 -4 8 -15 12 -19 6 -25 16 -22 37 0 4 -11 16
-26 28 -21 16 -24 23 -14 29 9 6 10 11 2 15 -17 11 -13 26 7 26 14 0 12 4 -8
21 -14 11 -19 18 -12 14 19 -10 14 13 -5 25 -15 9 -14 10 7 4 20 -5 22 -4 13
6 -6 7 -9 19 -6 27 5 12 9 10 19 -8 13 -23 13 -23 14 -2 0 16 5 20 19 16 10
-3 22 0 25 6 5 8 13 8 27 1 22 -12 25 -1 8 33 l-10 22 19 -21 c13 -15 23 -19
34 -13 22 12 41 -38 36 -91 -2 -22 0 -41 3 -42 12 -5 22 -70 20 -123 -2 -65 8
-135 20 -135 5 0 9 4 9 10 0 5 19 43 41 84 28 49 47 72 55 69 8 -3 14 0 14 7
0 6 4 9 9 6 5 -3 22 22 39 57 17 34 40 73 52 87 l21 25 -2 -40 c-2 -55 11
-101 23 -83 6 9 8 0 4 -27 -3 -22 -8 -71 -11 -110 -10 -109 22 -169 45 -83 31
112 62 179 94 195 17 10 34 16 39 15 4 -1 7 3 7 9 0 5 5 7 11 3 7 -4 10 -1 7
7 -3 8 2 20 9 28 8 7 12 19 9 26 -3 8 1 15 7 18 17 6 107 -22 107 -33 0 -5 7
-7 15 -4 8 4 15 1 15 -6 0 -8 8 -10 21 -7 12 3 22 0 26 -9 3 -8 12 -13 19 -10
8 3 19 -4 25 -15 7 -14 17 -19 31 -16 19 5 20 3 15 -46 -3 -29 -8 -60 -12 -69
-11 -28 18 -22 47 9 14 16 35 46 47 68 l22 40 -5 -55 c-3 -30 -8 -65 -12 -78
-5 -18 -2 -22 14 -22 26 0 56 38 78 98 18 50 40 80 49 70 6 -6 -6 -80 -20
-125 -6 -18 -4 -21 14 -16 28 7 56 43 77 101 25 67 45 95 57 83 12 -12 37 29
37 60 0 11 3 19 8 19 11 0 14 118 3 125 -6 3 -8 12 -4 20 3 8 0 15 -7 15 -6 0
-9 4 -6 9 8 12 -23 73 -34 66 -4 -3 -10 4 -13 14 -3 14 -11 18 -26 14 -12 -3
-22 -1 -22 3 -8 62 -8 69 4 53 10 -14 14 -14 25 -3 7 8 9 14 5 14 -4 0 -2 5 5
12 7 7 12 20 12 29 0 16 26 34 43 31 4 -1 7 2 7 6 0 5 9 18 21 30 11 13 17 28
13 35 -5 8 -2 7 9 -2 15 -12 17 -11 17 8 0 11 5 21 11 21 6 0 8 -7 5 -16 -3
-9 -2 -12 5 -8 6 3 9 15 6 25 -4 16 -2 17 14 8 13 -6 19 -6 19 1 0 5 8 10 18
11 10 0 12 3 5 6 -21 8 -14 25 7 18 14 -5 20 -2 20 10 0 9 4 14 9 11 4 -3 16
3 26 14 10 11 22 17 26 14 5 -3 6 3 2 12 -5 13 -3 16 10 11 11 -4 14 -2 10 9
-7 20 14 18 27 -3 10 -16 11 -16 6 -1 -5 16 26 35 46 30 4 -1 4 6 1 15 -4 10
-2 14 4 10 7 -5 9 1 5 15 -5 23 -5 23 16 4 23 -20 31 -9 10 12 -9 9 -9 12 2
13 8 1 19 1 23 0 5 -1 6 3 3 7 -3 5 3 17 14 27 11 10 20 16 21 14 0 -2 2 -14
5 -26 2 -13 0 -23 -5 -23 -5 0 -8 -16 -6 -35 2 -19 -1 -35 -6 -35 -5 0 -9 -8
-9 -18 0 -10 -5 -23 -12 -30 -9 -9 -9 -12 1 -12 11 0 11 -3 1 -15 -10 -12 -10
-15 1 -15 8 0 5 -6 -7 -15 -13 -10 -15 -14 -5 -15 11 0 10 -5 -4 -20 -18 -20
-18 -21 1 -14 17 7 17 6 5 -9 -11 -14 -11 -18 3 -23 12 -5 14 -10 6 -19 -7 -9
-6 -16 5 -25 9 -8 13 -21 9 -33 -4 -13 -2 -17 5 -13 6 4 12 1 12 -6 1 -7 2
-26 4 -43 1 -16 3 -36 4 -43 0 -7 6 -10 13 -6 8 5 9 2 5 -9 -3 -10 -2 -17 2
-17 5 0 12 6 14 13 3 6 6 -3 6 -21 1 -19 5 -31 11 -27 6 3 10 1 10 -5 0 -6 4
-8 10 -5 6 3 10 -3 10 -15 0 -12 4 -19 9 -16 5 4 20 -7 34 -23 14 -17 28 -27
31 -24 3 4 6 -2 7 -13 0 -17 2 -17 11 3 15 31 30 29 22 -2 -7 -29 3 -32 23 -7
13 16 14 16 8 -4 -8 -30 4 -57 19 -44 10 7 11 2 9 -23 -4 -25 -2 -29 6 -17 8
11 11 12 11 2 0 -7 5 -10 11 -6 7 4 9 0 5 -14 -6 -17 -3 -20 12 -17 11 2 26
-7 37 -22 32 -42 55 -66 55 -58 0 4 11 -4 25 -19 14 -16 32 -25 40 -22 7 2 15
0 17 -5 2 -5 13 -11 26 -12 12 0 22 -5 22 -10 0 -5 11 -6 25 -3 14 4 25 2 25
-3 0 -21 28 1 35 27 4 15 10 21 12 14 3 -9 14 -3 34 18 27 28 28 33 19 72 -14
64 -12 75 18 87 31 12 57 10 73 -6 6 -6 18 -9 25 -6 8 3 20 0 28 -6 7 -6 16
-8 19 -4 4 3 7 1 7 -4 0 -6 8 -10 18 -8 9 1 26 -2 37 -8 11 -6 23 -10 28 -9 4
1 7 -3 7 -9 0 -5 4 -8 9 -5 15 9 41 -5 41 -21 0 -12 7 -14 30 -9 17 3 30 1 30
-4 0 -5 7 -7 15 -4 8 4 22 1 30 -6 8 -7 15 -9 15 -5 0 5 9 0 20 -10 11 -10 20
-14 20 -9 0 9 19 11 140 16 68 4 142 -23 160 -57 21 -38 30 -30 30 28 l1 52
19 -37 c35 -65 43 -59 38 28 -3 43 -9 87 -13 97 -5 13 -2 17 12 17 28 0 93
-48 93 -70 0 -37 19 -30 30 10 14 53 0 99 -39 128 -16 12 -32 34 -36 50 -9 43
-69 92 -112 92 -10 0 -28 16 -42 38 -23 38 -80 72 -119 72 -12 0 -22 6 -22 13
0 6 -10 13 -22 14 -64 6 -88 11 -102 22 -9 7 -33 14 -56 14 -22 1 -40 6 -40
10 0 5 -4 6 -9 2 -11 -6 -81 33 -81 46 0 5 -5 9 -11 9 -7 0 -20 10 -30 22 -11
12 -29 22 -42 23 -12 1 -22 8 -21 17 1 8 -5 15 -12 16 -8 1 -21 3 -29 4 -8 1
-12 5 -9 10 3 5 1 15 -6 23 -8 9 -8 15 0 20 6 3 8 10 5 14 -2 5 3 17 11 27 9
10 12 13 8 5 -5 -10 -3 -12 5 -6 7 4 11 18 8 32 -3 19 0 27 14 30 15 4 17 11
12 32 l-6 26 22 -25 c14 -16 19 -19 15 -7 -3 9 -2 17 4 17 6 0 13 13 17 29 3
16 13 32 22 35 9 4 13 13 9 22 -4 12 -2 15 9 10 8 -3 15 -1 15 5 0 6 4 8 8 5
5 -3 6 8 4 25 -4 25 -2 28 13 23 15 -6 17 -2 13 26 l-5 32 19 -23 c14 -17 18
-19 14 -6 -3 9 -3 24 1 33 5 13 7 13 14 2 6 -9 9 -4 9 15 0 15 4 27 9 27 5 0
12 12 16 27 l7 28 10 -25 c10 -25 10 -25 29 15 10 22 19 54 20 70 1 29 2 29
13 -10 l13 -39 11 46 c7 26 12 66 13 90 0 33 2 38 9 23 8 -18 9 -18 10 5 1 23
2 23 10 5 10 -23 13 -14 10 37 -1 21 2 38 7 38 13 0 30 -14 36 -30 13 -34 6
99 -8 144 l-15 50 26 -25 27 -24 -5 27 c-4 21 -1 29 14 33 10 4 16 11 12 16
-3 6 -11 8 -18 6 -6 -3 -12 3 -12 12 0 18 31 22 53 8 17 -11 6 18 -20 56 -10
16 -16 31 -13 34 3 4 -2 15 -11 26 -20 23 -2 16 31 -12 18 -15 18 -15 7 6 -6
13 -9 23 -6 23 3 0 0 10 -6 22 -10 19 -6 18 21 -7 l33 -30 -21 31 c-12 17 -28
37 -37 44 -20 17 -20 51 0 44 13 -5 14 -2 5 20 -11 30 -5 33 24 9 12 -10 8 -3
-8 15 -17 17 -24 32 -18 32 20 0 13 21 -8 27 -11 3 -20 9 -20 15 0 5 9 4 20
-2 29 -15 25 0 -7 28 -26 22 -27 23 -5 19 24 -6 30 8 7 17 -9 3 -12 12 -9 21
5 12 10 13 17 6 6 -6 16 -11 21 -11 6 0 -2 9 -19 20 -16 11 -25 20 -20 20 6 0
2 5 -7 11 -10 5 -18 14 -18 19 0 5 8 10 18 12 10 3 -1 10 -28 18 -46 14 -74
30 -52 30 20 0 13 14 -15 33 l-28 17 60 -5 60 -5 -65 22 c-36 13 -64 26 -62
31 1 4 2 16 2 26 0 11 8 21 18 23 9 2 -12 11 -48 19 l-65 16 35 11 35 10 -47
1 c-47 1 -65 15 -30 24 9 3 -8 5 -38 6 -54 2 -55 2 -25 15 30 13 30 13 -17 11
-27 -1 -48 1 -48 6 0 4 21 14 48 22 l47 15 -37 1 c-50 1 -68 10 -61 28 5 13 3
13 -15 4 -26 -14 -35 -14 -27 -1 4 6 -7 16 -24 23 -25 11 -28 16 -18 26 10 10
6 11 -18 6 -29 -7 -29 -7 -10 8 19 14 16 15 -37 12 -53 -2 -57 -1 -47 16 7 13
6 19 -1 19 -6 0 -9 4 -6 8 3 5 -10 7 -29 6 -19 -2 -37 1 -40 7 -4 5 -11 7 -16
3 -5 -3 -22 -7 -37 -10 l-27 -5 30 21 30 21 -51 -4 c-28 -2 -55 -7 -61 -10
-15 -10 -23 16 -23 79 0 31 4 54 11 54 5 0 7 5 4 10 -3 6 -1 10 6 10 8 0 8 4
-1 15 -7 9 -10 18 -7 21 3 3 1 19 -3 35 -6 20 -5 27 2 23 7 -4 8 2 3 17 -7 21
-6 22 7 11 14 -11 14 -7 7 30 -11 56 -11 60 0 54 4 -3 6 7 3 22 -5 25 -4 26
14 12 18 -14 18 -14 3 10 -22 34 -31 77 -19 85 7 4 7 12 0 25 -5 10 -10 32
-10 47 0 16 -6 35 -12 42 -11 11 -10 12 1 6 11 -6 13 -2 7 21 -5 21 -4 25 4
14 6 -10 10 -11 10 -2 0 7 -9 20 -19 29 -11 9 -18 20 -15 24 2 4 -5 28 -16 54
-11 25 -15 43 -9 39 7 -4 9 0 6 12 -20 68 -26 104 -23 132 3 17 0 34 -5 37 -5
4 -9 11 -9 17 0 7 6 6 15 -2 21 -17 19 -1 -2 23 -17 19 -17 20 0 14 16 -6 15
-3 -4 24 -18 26 -23 47 -25 113 -1 44 -5 90 -10 101 -7 18 -6 18 9 6 15 -11
17 -11 17 2 0 8 -7 17 -15 21 -8 3 -14 16 -13 30 3 29 18 24 19 -7 1 -17 2
-18 6 -4 2 9 9 14 15 11 11 -7 10 -2 -11 80 -7 28 -7 36 2 27 20 -20 30 -12
24 19 -8 36 1 62 17 53 6 -4 4 2 -4 12 -13 17 -13 18 0 13 12 -4 15 3 13 36
-1 22 1 30 4 17 4 -22 6 -21 24 18 10 24 23 40 29 36 6 -4 10 -3 9 2 -1 4 -1
17 0 28 1 17 3 18 11 5 8 -13 10 -12 10 3 0 10 5 15 10 12 6 -3 10 3 10 14 0
11 5 23 10 26 6 3 10 17 10 31 0 14 5 23 13 21 6 -1 12 7 13 18 2 36 6 40 14
15 7 -21 8 -19 9 16 1 38 20 72 34 58 3 -3 8 5 13 18 4 13 15 29 25 36 11 7
24 34 30 58 8 32 14 41 20 32 6 -9 9 -4 9 15 0 15 4 27 9 27 5 0 11 11 13 25
2 14 7 25 12 24 13 -1 26 23 26 52 0 15 7 32 15 39 17 14 21 35 4 25 -6 -4 -5
2 3 14 7 12 19 21 26 21 7 0 10 5 7 10 -3 6 1 10 9 10 19 0 21 21 4 39 -8 9
-8 11 -2 8 7 -4 14 3 18 18 4 14 11 23 16 20 11 -7 24 31 15 45 -3 6 0 13 9
16 9 3 12 12 9 21 -5 11 -3 14 6 9 8 -6 7 2 -3 22 -18 34 -22 127 -6 117 6 -3
10 1 10 10 0 9 5 13 10 10 15 -9 12 8 -5 31 -8 10 -14 24 -15 29 0 6 5 3 11
-5 9 -12 10 -11 6 7 -3 14 -1 20 8 17 9 -4 11 6 9 35 -1 23 2 41 7 41 6 0 7 6
2 13 -4 6 5 4 20 -6 20 -13 27 -14 27 -4 0 7 -6 19 -12 26 -11 10 -9 11 6 5
14 -5 17 -4 11 5 -4 8 2 7 17 -3 14 -9 27 -14 30 -11 3 3 11 -3 19 -12 13 -17
13 -17 -6 -3 -18 14 -19 14 -7 -1 7 -10 21 -15 31 -12 11 3 29 0 40 -7 20 -10
21 -10 9 9 -6 11 -16 19 -22 18 -5 -1 -12 6 -14 16 -2 9 2 17 8 17 6 0 8 -5 4
-12 -6 -10 -5 -10 8 0 12 10 18 9 28 -3 7 -8 26 -21 44 -30 l31 -15 -23 20
c-13 11 -21 24 -18 29 4 5 2 12 -4 16 -6 4 -8 10 -5 15 3 5 -3 13 -12 19 -10
6 -14 11 -9 11 5 0 25 -10 45 -22 l36 -22 -19 22 c-17 19 -10 33 7 15 4 -3 17
-8 30 -9 12 -1 36 -6 52 -10 27 -7 29 -6 16 9 -7 9 -17 15 -21 12 -5 -3 -11
-1 -14 4 -4 5 0 8 6 7 18 -3 121 -37 133 -44 16 -9 45 -9 39 0 -3 4 -11 8 -18
8 -7 0 -21 7 -32 15 -18 14 -18 14 4 8 26 -6 29 9 6 31 -14 15 -14 16 0 16 9
0 16 -5 16 -11 0 -5 5 -7 10 -4 8 5 7 11 -1 21 -9 11 -9 14 0 14 9 0 9 5 1 21
-15 27 -5 36 17 17 21 -18 83 -49 83 -41 0 3 -14 23 -31 44 -38 48 -23 51 25
5 20 -18 36 -29 35 -22 -3 21 1 36 9 35 21 -4 32 2 26 14 -4 6 -3 8 1 4 5 -4
11 -20 13 -35 2 -15 11 -34 20 -42 14 -14 15 -13 3 3 -11 14 -11 20 0 34 8 9
9 14 3 10 -6 -3 -11 -1 -11 6 0 7 8 13 18 13 10 0 16 -3 14 -7 -8 -12 35 -42
66 -45 17 -2 45 -13 62 -25 l32 -21 -25 22 c-14 12 -35 30 -47 40 -23 18 -59
77 -74 120 -8 22 -7 23 4 6 6 -11 27 -36 44 -56 18 -20 29 -41 25 -45 -4 -5
-1 -5 6 -1 7 4 25 0 40 -10 23 -15 25 -15 14 -1 -8 9 -22 19 -32 22 -11 3 -25
18 -33 33 -7 15 -21 39 -31 55 -15 22 -16 27 -3 27 8 0 20 -7 27 -15 7 -8 16
-15 20 -15 4 0 25 -16 46 -35 21 -19 43 -35 50 -35 6 0 14 -9 17 -20 3 -11 10
-20 16 -20 17 0 -20 54 -55 80 -35 26 -102 133 -78 123 8 -3 14 -10 14 -15 0
-18 41 -68 55 -68 9 0 5 9 -10 25 -32 31 -33 55 -3 29 13 -10 28 -26 35 -34 7
-8 13 -10 13 -4 0 6 -9 19 -20 29 -28 25 -25 43 3 19 14 -12 13 -8 -5 12 -16
16 -28 34 -28 39 0 5 12 -2 28 -16 72 -65 83 -62 21 6 -23 25 -38 45 -33 45 4
0 -8 16 -27 36 -25 26 -29 33 -14 28 11 -3 40 -27 65 -53 25 -26 40 -40 34
-32 -23 34 -25 41 -10 41 9 0 15 -5 13 -12 -1 -7 21 -24 49 -38 29 -14 62 -34
74 -45 l23 -20 -11 20 c-22 38 -41 57 -51 51 -5 -4 -13 -1 -17 5 -5 8 -3 9 7
4 12 -8 12 -6 0 8 -12 15 -31 15 -31 1 0 -3 5 -2 12 2 7 5 8 3 4 -5 -6 -9 -13
-8 -27 5 -22 20 -26 32 -4 14 8 -7 15 -8 15 -2 0 12 -25 33 -32 26 -3 -3 -20
14 -39 37 -22 28 -26 37 -12 29 11 -7 27 -25 36 -39 14 -23 17 -23 17 -6 0 18
1 18 16 -3 8 -12 21 -22 29 -22 8 0 30 -13 48 -30 54 -47 56 -35 3 19 -32 32
-44 51 -36 56 6 4 21 -1 33 -12 12 -10 37 -29 55 -41 31 -22 32 -22 20 -3 -7
12 -18 21 -25 21 -6 0 -21 12 -32 26 -12 15 -21 24 -21 20 0 -4 -10 -2 -21 5
-17 9 -20 8 -14 -2 5 -7 4 -10 -3 -5 -6 4 -9 13 -6 21 4 8 11 12 17 8 6 -3 2
5 -9 19 -10 15 -21 22 -23 16 -2 -6 3 -15 10 -20 12 -8 11 -9 -1 -5 -9 2 -15
16 -15 35 -1 29 1 30 17 16 9 -9 21 -13 27 -10 5 4 13 1 17 -5 5 -8 3 -9 -7
-4 -11 7 -11 5 1 -10 14 -17 15 -17 18 -1 4 19 -14 46 -31 46 -10 0 -29 21
-48 54 -10 16 -7 16 22 -4 l34 -23 -27 29 c-25 26 -25 30 -9 30 11 0 18 -3 15
-7 -7 -11 25 -32 41 -26 8 4 20 -2 27 -12 7 -9 20 -21 28 -26 13 -8 13 -7 0
11 -8 10 -29 35 -46 56 -58 65 -60 86 -4 33 29 -27 50 -44 46 -37 -4 6 -2 12
5 12 6 0 1 9 -12 21 l-24 20 32 -17 c18 -10 35 -24 38 -32 4 -12 3 -13 -10 -2
-8 7 -15 9 -15 4 1 -12 67 -54 74 -47 2 3 1 16 -4 29 -13 32 16 21 35 -15 8
-14 14 -20 15 -13 0 8 5 10 13 6 6 -4 1 6 -13 22 -28 33 -53 74 -44 74 3 0 30
-26 61 -57 40 -41 48 -47 29 -21 -14 20 -26 41 -26 46 0 5 -7 15 -15 22 -8 7
-13 16 -10 20 3 5 1 11 -5 15 -6 4 -8 10 -5 14 2 5 -7 19 -22 32 -21 19 -25
20 -20 6 4 -11 3 -16 -4 -12 -6 4 -8 14 -5 22 4 8 -4 24 -16 35 -13 11 -5 8
17 -7 22 -15 55 -44 73 -64 l34 -36 -24 35 c-12 19 -42 53 -65 74 -44 41 -53
56 -30 52 20 -3 38 -17 32 -26 -3 -4 11 -20 30 -34 19 -15 35 -24 35 -20 0 3
8 0 18 -7 9 -7 1 4 -17 24 -35 37 -48 47 -35 25 4 -7 3 -8 -5 -4 -9 6 -9 11
-1 21 8 10 8 19 0 35 -6 12 -14 19 -18 16 -3 -4 0 -12 6 -18 7 -7 12 -17 12
-22 0 -6 -9 0 -19 14 -19 24 -19 25 0 38 10 7 24 10 30 6 8 -5 8 -8 0 -13 -7
-5 -1 -16 16 -32 26 -22 26 -22 9 -1 -16 18 -17 25 -6 35 8 7 11 8 7 1 -4 -7
1 -18 11 -25 15 -13 16 -12 3 4 -8 10 -9 17 -3 17 6 0 14 -4 17 -10 3 -5 16
-15 28 -20 15 -7 12 -3 -7 12 -56 43 -91 78 -76 76 8 -2 21 -10 27 -18 11 -13
12 -13 7 2 -3 9 -28 31 -55 49 -57 36 -59 53 -3 20 37 -22 114 -52 114 -45 0
2 -16 12 -36 21 -20 10 -36 23 -36 28 3 18 44 13 88 -12 38 -21 44 -22 44 -8
0 9 -4 13 -10 10 -12 -7 -62 24 -55 35 3 5 -11 14 -30 20 -19 6 -37 15 -39 19
-7 11 37 7 61 -7 36 -20 40 -14 8 14 l-30 25 33 -16 c17 -8 32 -12 32 -7 0 5
-18 17 -40 27 -60 27 -34 40 33 17 65 -22 68 -14 5 13 -55 24 -55 24 -38 35
11 7 6 10 -20 10 -41 0 -79 19 -45 21 11 1 30 1 42 0 12 -1 25 4 29 10 4 7 3
9 -3 6 -10 -6 -64 28 -71 45 -2 5 -11 8 -20 9 -10 0 -12 3 -5 5 7 3 22 0 35
-7 19 -10 18 -7 -6 15 -31 30 -30 44 4 26 11 -6 26 -9 33 -6 9 3 9 5 0 5 -7 1
-13 8 -13 16 0 9 6 12 17 8 11 -4 14 -3 9 5 -4 8 -2 10 7 6 8 -3 18 0 22 7 6
8 -1 10 -22 7 -18 -2 -35 2 -43 11 -12 12 -11 14 8 9 12 -4 22 -2 22 3 0 8
-38 14 -62 10 -5 0 -8 3 -8 8 0 10 39 27 53 23 4 -1 7 2 7 7 0 6 -18 8 -41 5
-44 -5 -79 2 -79 17 0 5 9 9 21 9 12 0 17 4 14 11 -4 6 -13 8 -21 5 -8 -3 -14
-1 -14 3 0 5 -12 14 -27 19 l-28 10 27 1 c15 1 30 6 33 11 3 6 16 10 28 10 21
1 21 1 3 11 -10 6 -36 9 -58 6 -31 -4 -44 -1 -59 14 -17 17 -18 19 -1 19 9 0
26 7 36 15 23 18 14 20 -16 4 -14 -8 -23 -8 -31 0 -8 8 -5 11 11 11 12 0 22 4
22 9 0 4 -11 6 -24 4 -27 -5 -45 25 -24 39 8 4 -5 8 -32 8 -33 0 -41 3 -30 10
11 7 5 10 -23 10 -25 0 -36 4 -31 11 4 7 0 9 -13 5 -12 -4 -25 0 -33 9 -9 11
-23 14 -49 10 l-36 -6 28 16 c31 18 37 31 6 15 -11 -6 -25 -9 -32 -7 -7 2 0
10 16 17 15 7 27 18 27 24 0 6 -5 5 -12 -2 -14 -14 -42 -16 -33 -2 7 11 -31 8
-105 -9 -40 -9 -43 -8 -26 5 27 19 6 18 -22 -2 -26 -18 -70 -25 -78 -13 -3 5
2 9 10 9 9 0 16 4 16 9 0 5 12 12 28 16 15 4 21 10 15 12 -13 5 -76 -29 -101
-54 -7 -7 -25 -13 -39 -13 -15 0 -34 -6 -42 -14 -9 -7 -33 -16 -55 -19 -37 -6
-38 -6 -21 13 25 28 8 25 -27 -5 -16 -14 -34 -22 -40 -19 -5 3 -16 -2 -24 -12
-13 -18 -14 -18 -8 1 4 15 0 13 -19 -9 -14 -16 -29 -26 -35 -22 -6 3 -13 0
-16 -6 -5 -10 -7 -10 -12 -1 -4 9 -11 10 -25 3 -24 -13 -25 -3 -2 22 17 19 16
19 -12 12 -17 -4 -38 -11 -47 -15 -26 -14 -32 -11 -17 9 7 9 -1 4 -17 -11 -17
-15 -40 -29 -52 -30 -11 0 -18 -5 -16 -9 5 -7 -9 -12 -27 -10 -4 1 -17 -10
-29 -23 -36 -38 -46 -29 -14 13 22 29 14 25 -37 -23 -73 -69 -101 -100 -119
-135 -13 -23 -14 -24 -21 -5 -4 11 -8 14 -8 7 -1 -8 -9 -24 -19 -36 -15 -20
-19 -21 -31 -9 -10 11 -16 12 -24 4 -17 -17 -27 -13 -27 11 0 21 0 21 -15 2
-13 -17 -14 -17 -15 -2 0 12 -6 16 -21 13 -17 -3 -20 0 -16 14 5 19 -7 22 -31
7 -11 -7 -12 -4 -3 12 10 18 8 20 -8 17 -11 -2 -29 -9 -40 -15 -20 -10 -26 -6
-22 14 1 5 -5 4 -13 -3 -23 -19 -49 -6 -42 21 3 13 3 18 1 12 -6 -12 -55 -7
-55 5 0 4 -6 8 -12 9 -58 7 -76 15 -70 31 5 14 4 14 -13 1 -14 -12 -19 -12
-23 -2 -3 9 -7 10 -17 2 -10 -8 -15 -8 -21 1 -4 8 -3 9 4 5 8 -5 10 -1 5 10
-6 15 -7 15 -21 -2 -14 -18 -14 -18 -9 6 6 24 5 24 -8 6 -14 -19 -15 -19 -15
-2 0 14 -3 16 -12 8 -14 -11 -43 10 -31 22 4 3 1 6 -5 6 -7 0 -12 -4 -12 -9 0
-5 -7 -12 -16 -15 -13 -5 -15 -1 -10 21 4 16 3 24 -1 18 -10 -12 -53 -12 -72
0 -10 6 -12 4 -6 -5 5 -9 4 -11 -3 -6 -7 4 -12 14 -12 22 0 8 -4 12 -10 9 -5
-3 -10 -1 -10 5 0 6 -5 8 -11 5 -6 -4 -8 -13 -5 -21 3 -8 0 -11 -9 -7 -10 3
-13 14 -9 32 5 24 4 24 -7 6 -18 -30 -19 -31 -30 -15 -8 13 -10 13 -18 1 -7
-11 -10 -9 -16 10 -7 22 -8 22 -21 4 -12 -16 -14 -16 -20 -2 -3 9 -12 13 -20
10 -8 -3 -27 8 -45 27 -17 17 -34 29 -37 25 -4 -3 0 -11 8 -16 11 -7 8 -9 -15
-8 -16 1 -39 -2 -49 -6 -13 -6 -23 -3 -31 9 -10 13 -14 14 -18 4 -4 -10 -8
-10 -16 2 -9 13 -11 13 -11 -2 0 -26 -22 -26 -47 0 -19 21 -23 22 -23 7 0 -14
-3 -15 -14 -6 -12 10 -15 8 -19 -11 -4 -21 -4 -20 -6 4 0 15 -6 30 -13 34 -7
4 -8 3 -4 -4 4 -7 3 -12 -2 -12 -6 0 -12 7 -16 15 -6 16 -26 16 -39 0 -4 -6
-13 -3 -22 9 -7 10 -19 15 -25 11 -6 -4 -9 -1 -8 7 2 8 -5 12 -19 11 -13 -2
-23 3 -23 10 0 8 -4 7 -11 -3 -9 -12 -10 -11 -6 7 3 14 1 20 -8 17 -13 -6 -28
22 -20 36 3 5 -4 24 -15 42 -11 18 -20 43 -20 54 0 12 -7 27 -15 34 -8 7 -12
16 -9 21 3 5 -3 6 -12 2 -14 -5 -16 -2 -12 20 3 16 1 25 -6 24 -6 -1 -12 15
-14 36 -2 20 -8 37 -13 37 -6 0 -7 -5 -3 -12 4 -6 3 -8 -4 -5 -5 4 -8 17 -4
29 4 16 2 19 -9 13 -11 -7 -11 -5 1 10 14 17 13 18 -4 12 -15 -6 -17 -5 -7 7
9 11 9 15 -1 19 -11 3 -10 9 1 28 l14 24 -25 -23 -25 -23 -6 21 c-3 14 -10 19
-17 15 -9 -6 -9 -2 -1 13 14 26 14 35 1 27 -16 -10 -12 6 8 29 17 21 17 21 -3
5 -11 -9 -32 -15 -47 -14 -18 2 -31 -2 -38 -13 -5 -9 -10 -12 -10 -6 0 5 5 15
11 21 6 6 8 16 4 23 -5 8 -11 6 -22 -7 -14 -17 -14 -17 -10 5 4 15 1 20 -6 15
-7 -4 -20 -8 -30 -8 -15 -2 -15 1 5 24 13 14 15 19 6 12 -18 -13 -25 -4 -10
15 4 5 -3 -1 -15 -13 -25 -26 -48 -31 -39 -7 4 10 2 13 -6 8 -8 -5 -9 2 -4 22
5 24 4 26 -5 11 -6 -10 -8 -26 -4 -35 5 -13 2 -13 -15 3 -11 10 -20 22 -20 26
0 4 -11 19 -24 32 -20 20 -26 22 -30 10 -4 -8 -4 -19 -1 -24 4 -5 -1 -6 -10
-3 -10 4 -14 13 -10 22 3 9 3 13 -1 10 -10 -11 -47 41 -40 57 3 8 1 15 -4 15
-6 0 -10 7 -10 16 0 18 -50 87 -58 80 -3 -3 0 -12 7 -19 6 -8 8 -22 5 -32 -6
-14 -11 -11 -30 21 -31 51 -51 53 -46 5 l3 -36 -18 28 c-22 34 -36 35 -23 1 8
-20 7 -25 -2 -22 -7 3 -16 18 -19 34 -5 22 -7 24 -9 9 -2 -11 -3 -26 -3 -32 1
-7 -3 -10 -8 -7 -5 3 -9 11 -9 18 0 8 -21 40 -46 72 -30 39 -44 50 -39 34 4
-14 11 -27 15 -30 7 -5 14 -35 11 -53 0 -4 -15 7 -32 25 l-30 33 26 -45 26
-45 -37 40 c-21 23 -34 31 -29 20 4 -11 9 -27 10 -35 1 -8 6 -23 10 -33 4 -10
5 -20 2 -23 -2 -3 -15 16 -28 42 -22 46 -52 84 -66 84 -4 0 -2 -5 5 -12 7 -7
12 -20 12 -30 0 -10 7 -30 16 -43 9 -14 12 -25 6 -25 -6 0 -19 17 -29 38 -15
32 -56 98 -68 111 -3 2 -2 -7 0 -19z m34 -116 c3 -16 1 -17 -13 -5 -19 16 -21
34 -3 29 6 -3 14 -13 16 -24z m165 -20 c3 -8 2 -12 -4 -9 -6 3 -10 10 -10 16
0 14 7 11 14 -7z m260 -17 c3 -16 1 -25 -5 -22 -5 4 -9 18 -9 32 0 32 7 27 14
-10z m-523 1 c11 -21 11 -22 -4 -9 -10 7 -17 17 -17 22 0 15 9 10 21 -13z
m-106 -79 c11 -17 -1 -21 -15 -4 -8 9 -8 15 -2 15 6 0 14 -5 17 -11z m672 -31
c-3 -7 -5 -2 -5 12 0 14 2 19 5 13 2 -7 2 -19 0 -25z m-867 -8 c12 -8 11 -10
-7 -10 -13 0 -23 5 -23 10 0 13 11 13 30 0z m963 -43 c-3 -5 -11 4 -19 18 -19
37 -18 42 5 14 11 -13 17 -28 14 -32z m-934 -15 c-12 -5 -39 17 -39 30 0 5 11
1 24 -9 13 -10 20 -20 15 -21z m-94 -12 c7 -12 -2 -12 -30 0 -19 8 -19 9 2 9
12 1 25 -3 28 -9z m1257 -72 c-7 -7 -12 -8 -12 -2 0 14 12 26 19 19 2 -3 -1
-11 -7 -17z m-1317 -38 c3 -6 -1 -7 -9 -4 -18 7 -21 14 -7 14 6 0 13 -4 16
-10z m-90 -50 c3 -5 2 -10 -4 -10 -5 0 -13 5 -16 10 -3 6 -2 10 4 10 5 0 13
-4 16 -10z m45 -20 c12 -8 9 -10 -13 -10 -16 0 -26 4 -22 10 8 12 16 12 35 0z
m-85 -30 c13 -6 15 -9 5 -9 -8 0 -22 4 -30 9 -18 12 -2 12 25 0z m120 -70 l20
-9 -20 0 c-11 0 -27 4 -35 9 -13 9 -13 10 0 9 8 0 24 -4 35 -9z m-145 -180 c0
-5 -2 -10 -4 -10 -3 0 -8 5 -11 10 -3 6 -1 10 4 10 6 0 11 -4 11 -10z m4175
-130 c3 -5 -1 -10 -10 -10 -9 0 -13 5 -10 10 3 6 8 10 10 10 2 0 7 -4 10 -10z
m-245 -30 c0 -5 -8 -10 -17 -10 -15 0 -16 2 -3 10 19 12 20 12 20 0z m-360
-70 c0 -5 -10 -10 -22 -9 -22 0 -22 1 -3 9 11 5 21 9 23 9 1 1 2 -3 2 -9z
m885 0 c-3 -5 0 -10 7 -11 7 0 4 -4 -7 -9 -28 -12 -45 -12 -45 1 0 5 5 7 10 4
6 -3 13 1 16 9 3 9 10 16 16 16 5 0 6 -4 3 -10z m25 -40 c0 -5 -8 -10 -17 -10
-15 0 -16 2 -3 10 19 12 20 12 20 0z m-4243 -6 c-3 -3 -12 -4 -19 -1 -8 3 -5
6 6 6 11 1 17 -2 13 -5z m-102 -14 c-12 -5 -14 -9 -6 -9 8 -1 11 -4 8 -7 -4
-4 -13 -2 -20 4 -8 7 -17 9 -20 5 -4 -3 -7 -1 -7 5 0 7 14 12 33 11 27 0 29
-2 12 -9z m-185 -42 c0 -12 -6 -9 -26 13 -19 22 -19 22 4 8 12 -8 22 -17 22
-21z m4645 -18 c-3 -5 -11 -10 -16 -10 -6 0 -7 5 -4 10 3 6 11 10 16 10 6 0 7
-4 4 -10z m-4700 -20 c3 -5 2 -10 -4 -10 -5 0 -13 5 -16 10 -3 6 -2 10 4 10 5
0 13 -4 16 -10z m4582 -36 c-3 -3 -12 -4 -19 -1 -8 3 -5 6 6 6 11 1 17 -2 13
-5z m-4476 -43 c-13 -8 -13 -12 -1 -28 13 -16 12 -16 -8 1 -17 15 -19 22 -10
28 7 4 18 8 23 8 6 0 4 -4 -4 -9z m-54 -77 c-3 -3 -12 -4 -19 -1 -8 3 -5 6 6
6 11 1 17 -2 13 -5z m188 -94 c3 -5 1 -10 -4 -10 -6 0 -11 5 -11 10 0 6 2 10
4 10 3 0 8 -4 11 -10z m4492 -6 c-3 -3 -12 -4 -19 -1 -8 3 -5 6 6 6 11 1 17
-2 13 -5z m-4437 -44 c0 -15 -5 -12 -26 11 -19 22 -19 22 4 10 12 -6 22 -16
22 -21z m4485 20 c16 -7 14 -8 -12 -7 -17 1 -29 5 -26 10 5 9 12 8 38 -3z
m-15 -80 c13 -9 13 -10 0 -10 -8 0 -22 5 -30 10 -13 9 -13 10 0 10 8 0 22 -5
30 -10z m49 -56 c3 -4 -11 -4 -32 -1 -26 4 -35 2 -31 -5 4 -7 2 -8 -5 -4 -20
13 -2 25 30 21 17 -2 34 -7 38 -11z m-49 -64 c8 -5 11 -10 5 -10 -5 0 -17 5
-25 10 -8 5 -10 10 -5 10 6 0 17 -5 25 -10z m-4335 -40 c3 -6 -1 -7 -9 -4 -18
7 -21 14 -7 14 6 0 13 -4 16 -10z m4297 -68 c9 -9 9 -12 1 -12 -7 0 -15 5 -18
11 -4 6 -19 7 -35 4 -15 -3 -31 -2 -34 3 -9 14 72 8 86 -6z m-87 -42 c-4 -6 4
-20 17 -31 l23 -20 -27 17 c-28 17 -33 25 -21 37 10 11 15 8 8 -3z m55 -110
c0 -5 -2 -10 -4 -10 -3 0 -8 5 -11 10 -3 6 -1 10 4 10 6 0 11 -4 11 -10z m-31
-64 c7 -8 8 -17 3 -19 -4 -3 -13 3 -20 14 -14 22 0 26 17 5z m46 -24 c-3 -3 2
-14 12 -24 20 -23 6 -24 -19 -1 -22 20 -23 30 -3 30 8 0 13 -3 10 -5z m-219
-113 c15 -26 -6 -15 -37 18 l-34 36 32 -22 c18 -12 35 -27 39 -32z m99 41 c3
-5 2 -10 -4 -10 -5 0 -13 5 -16 10 -3 6 -2 10 4 10 5 0 13 -4 16 -10z m-88
-96 c0 -22 -13 -16 -25 11 -11 23 -10 24 7 14 10 -7 18 -18 18 -25z m-87 -79
c0 -4 -9 4 -20 18 -11 14 -20 28 -20 32 0 4 9 -4 20 -18 11 -14 20 -28 20 -32z
m-55 15 c10 -11 16 -20 13 -20 -3 0 -13 9 -23 20 -10 11 -16 20 -13 20 3 0 13
-9 23 -20z m145 -11 c0 -6 -4 -7 -10 -4 -5 3 -10 11 -10 16 0 6 5 7 10 4 6 -3
10 -11 10 -16z m-155 -49 c3 -5 1 -10 -4 -10 -6 0 -11 5 -11 10 0 6 2 10 4 10
3 0 8 -4 11 -10z m5 -82 c0 -9 -28 -4 -37 7 -4 4 -2 5 5 1 15 -9 15 -1 1 27
-9 19 -7 18 10 -3 11 -14 21 -28 21 -32z m56 -25 c-6 -7 -45 11 -40 18 3 5 0
19 -7 31 -7 14 1 9 19 -12 16 -19 29 -36 28 -37z m-126 -3 c0 -5 -2 -10 -4
-10 -3 0 -8 5 -11 10 -3 6 -1 10 4 10 6 0 11 -4 11 -10z m21 -37 c13 -15 12
-15 -8 -4 -24 12 -29 21 -14 21 5 0 15 -7 22 -17z m43 -9 c5 -14 4 -15 -9 -4
-17 14 -19 20 -6 20 5 0 12 -7 15 -16z m-94 -35 c15 -28 5 -23 -15 7 -9 15
-12 23 -6 20 6 -4 16 -16 21 -27z m-3945 -577 c-3 -3 -11 0 -18 7 -9 10 -8 11
6 5 10 -3 15 -9 12 -12z m-55 -7 c-14 -8 -29 -14 -35 -14 -5 0 1 6 15 14 14 8
30 14 35 14 6 0 -1 -6 -15 -14z m-23 -31 c-3 -3 -12 -4 -19 -1 -8 3 -5 6 6 6
11 1 17 -2 13 -5z m2720 -1011 c-4 -3 -1 -13 6 -22 11 -14 10 -14 -5 -2 -16
12 -16 31 -1 31 4 0 3 -3 0 -7z m-3635 -112 c-15 -21 -29 -37 -31 -35 -4 4 47
74 54 74 3 0 -8 -18 -23 -39z m-34 -90 c-13 -15 -25 -27 -27 -25 -4 4 39 54
47 54 2 0 -7 -13 -20 -29z m-88 -441 c0 -5 -5 -10 -11 -10 -5 0 -7 5 -4 10 3
6 8 10 11 10 2 0 4 -4 4 -10z m-32 -54 c-7 -8 -15 -12 -17 -11 -5 6 10 25 20
25 5 0 4 -6 -3 -14z m-173 -1376 c-3 -5 -11 -10 -16 -10 -6 0 -7 5 -4 10 3 6
11 10 16 10 6 0 7 -4 4 -10z m4816 -287 c13 -16 12 -17 -3 -4 -17 13 -22 21
-14 21 2 0 10 -8 17 -17z m-195 -619 c-4 -14 -9 -24 -12 -21 -3 2 -2 17 2 31
3 15 9 25 11 22 3 -3 2 -17 -1 -32z m-4026 -720 c0 -2 -9 0 -20 6 -11 6 -20
13 -20 16 0 2 9 0 20 -6 11 -6 20 -13 20 -16z"/>
<path d="M5290 8980 c6 -11 13 -20 16 -20 2 0 0 9 -6 20 -6 11 -13 20 -16 20
-2 0 0 -9 6 -20z"/>
<path d="M5508 8957 c7 -8 8 -18 4 -22 -4 -5 -1 -5 6 -1 17 10 15 23 -4 30
-13 5 -14 4 -6 -7z"/>
<path d="M5161 8903 c7 -12 15 -20 18 -17 3 2 -3 12 -13 22 -17 16 -18 16 -5
-5z"/>
<path d="M4683 8793 c9 -2 25 -2 35 0 9 3 1 5 -18 5 -19 0 -27 -2 -17 -5z"/>
<path d="M4725 8770 c11 -5 29 -8 40 -8 16 0 15 2 -5 8 -34 11 -60 11 -35 0z"/>
<path d="M4515 8673 c11 -3 24 -9 30 -14 5 -5 14 -9 20 -9 5 0 1 7 -9 15 -11
8 -29 14 -40 14 -20 -1 -21 -1 -1 -6z"/>
<path d="M4510 8591 c0 -5 7 -12 16 -15 14 -5 15 -4 4 9 -14 17 -20 19 -20 6z"/>
<path d="M4448 8283 c7 -3 16 -2 19 1 4 3 -2 6 -13 5 -11 0 -14 -3 -6 -6z"/>
<path d="M4370 8090 l-35 -7 35 -2 c19 0 42 4 50 9 13 9 13 10 0 9 -8 -1 -31
-5 -50 -9z"/>
<path d="M4475 8070 c-30 -8 -30 -8 8 -9 23 -1 36 3 32 9 -3 6 -7 9 -8 9 -1
-1 -15 -5 -32 -9z"/>
<path d="M8319 8043 c-13 -16 -12 -17 4 -4 16 13 21 21 13 21 -2 0 -10 -8 -17
-17z"/>
<path d="M4490 8026 c0 -2 7 -7 16 -10 8 -3 12 -2 9 4 -6 10 -25 14 -25 6z"/>
<path d="M4531 7976 c12 -10 59 -15 59 -6 0 5 -14 10 -32 10 -17 0 -29 -2 -27
-4z"/>
<path d="M4444 7933 c3 -4 17 -8 29 -10 17 -2 19 -1 7 7 -17 11 -47 14 -36 3z"/>
<path d="M9203 7814 c4 -4 27 -10 52 -14 25 -4 42 -4 38 0 -10 10 -99 23 -90
14z"/>
<path d="M9213 7773 c9 -2 25 -2 35 0 9 3 1 5 -18 5 -19 0 -27 -2 -17 -5z"/>
<path d="M4385 7750 c3 -5 11 -10 16 -10 6 0 7 5 4 10 -3 6 -11 10 -16 10 -6
0 -7 -4 -4 -10z"/>
<path d="M4427 7709 c7 -7 15 -10 18 -7 3 3 -2 9 -12 12 -14 6 -15 5 -6 -5z"/>
<path d="M9298 7703 c7 -3 16 -2 19 1 4 3 -2 6 -13 5 -11 0 -14 -3 -6 -6z"/>
<path d="M9298 7633 c7 -3 16 -2 19 1 4 3 -2 6 -13 5 -11 0 -14 -3 -6 -6z"/>
<path d="M9327 7489 c7 -7 15 -10 18 -7 3 3 -2 9 -12 12 -14 6 -15 5 -6 -5z"/>
<path d="M9346 7374 c-3 -8 -2 -13 2 -10 9 5 36 -11 91 -52 55 -42 33 -16 -28
31 -47 37 -60 44 -65 31z"/>
<path d="M4796 7353 c-8 -21 -1 -27 17 -16 12 6 13 10 2 20 -10 10 -15 9 -19
-4z"/>
<path d="M9249 7317 c7 -7 14 -8 21 -1 6 6 2 10 -12 11 -16 2 -18 -1 -9 -10z"/>
<path d="M9277 7259 c7 -7 15 -10 18 -7 3 3 -2 9 -12 12 -14 6 -15 5 -6 -5z"/>
<path d="M9320 7256 c0 -2 7 -7 16 -10 8 -3 12 -2 9 4 -6 10 -25 14 -25 6z"/>
<path d="M9280 7166 c0 -2 8 -10 18 -17 15 -13 16 -12 3 4 -13 16 -21 21 -21
13z"/>
<path d="M9330 7166 c0 -2 8 -10 18 -17 15 -13 16 -12 3 4 -13 16 -21 21 -21
13z"/>
<path d="M9265 7060 c3 -5 8 -10 11 -10 2 0 4 5 4 10 0 6 -5 10 -11 10 -5 0
-7 -4 -4 -10z"/>
<path d="M9285 7030 c3 -5 8 -10 11 -10 2 0 4 5 4 10 0 6 -5 10 -11 10 -5 0
-7 -4 -4 -10z"/>
<path d="M9287 6983 c6 -16 5 -17 -13 -3 -15 11 -16 11 -7 0 7 -8 20 -15 28
-16 12 -2 13 2 5 17 -13 24 -22 25 -13 2z"/>
<path d="M9190 6859 c7 -11 14 -19 16 -16 7 7 -7 37 -17 37 -6 0 -5 -9 1 -21z"/>
<path d="M8636 6401 c-4 -5 -2 -12 3 -15 5 -4 12 -2 15 3 4 5 2 12 -3 15 -5 4
-12 2 -15 -3z"/>
<path d="M8608 6353 c-3 -4 6 -18 18 -31 21 -22 22 -22 17 -3 -6 23 -29 46
-35 34z"/>
<path d="M8775 6350 c3 -5 16 -10 27 -10 26 0 16 13 -13 17 -12 2 -18 -1 -14
-7z"/>
<path d="M4960 6150 c-13 -8 -12 -10 3 -10 9 0 17 5 17 10 0 12 -1 12 -20 0z"/>
<path d="M4835 6090 c3 -5 10 -10 16 -10 5 0 9 5 9 10 0 6 -7 10 -16 10 -8 0
-12 -4 -9 -10z"/>
<path d="M4386 5721 c-4 -5 3 -7 14 -4 23 6 26 13 6 13 -8 0 -17 -4 -20 -9z"/>
<path d="M4350 5669 c0 -5 5 -7 10 -4 6 3 10 8 10 11 0 2 -4 4 -10 4 -5 0 -10
-5 -10 -11z"/>
<path d="M3844 4934 c-18 -14 -18 -15 4 -4 12 6 22 13 22 15 0 8 -5 6 -26 -11z"/>
<path d="M7486 4033 c-6 -14 -5 -15 5 -6 7 7 10 15 7 18 -3 3 -9 -2 -12 -12z"/>
<path d="M7710 3370 c-12 -7 -10 -9 7 -7 12 0 19 5 17 9 -6 10 -6 10 -24 -2z"/>
<path d="M7910 3270 c-13 -8 -13 -10 2 -10 9 0 20 5 23 10 8 13 -5 13 -25 0z"/>
<path d="M3463 1855 c-3 -9 -3 -18 -1 -21 3 -3 8 4 11 16 6 23 -1 27 -10 5z"/>
<path d="M7990 1791 c0 -5 5 -13 10 -16 6 -3 10 -2 10 4 0 5 -4 13 -10 16 -5
3 -10 2 -10 -4z"/>
<path d="M6705 1380 c3 -5 8 -10 11 -10 2 0 4 5 4 10 0 6 -5 10 -11 10 -5 0
-7 -4 -4 -10z"/>
</g>
</svg>
